<svg width="62" height="21" viewBox="0 0 62 21" fill="none" xmlns="http://www.w3.org/2000/svg"><path fill-rule="evenodd" clip-rule="evenodd" d="M11.5607 0.000488281L10.9482 1.06003C10.9345 1.08377 10.9207 1.10749 10.9071 1.13125L0 20.0005H23.1213L11.5607 0.000488281ZM7.71889 9.4823L2.46739 18.5674C5.19878 18.5021 7.65513 18.1843 9.48888 17.261C10.0736 16.9666 10.5901 16.6128 11.0311 16.188C9.86466 15.3917 9.02458 14.4754 8.47767 13.4506C7.82178 12.2216 7.61542 10.8889 7.71618 9.51819C7.71706 9.50623 7.71796 9.49427 7.71889 9.4823ZM10.0199 18.5815H20.6435C19.1966 16.2084 17.6283 14.134 15.8673 12.8978C15.3279 12.5191 14.7768 12.2238 14.2106 12.0222C14.1138 13.5195 13.7425 14.7733 13.1248 15.8115C12.3974 17.034 11.3569 17.9092 10.127 18.5284C10.0915 18.5463 10.0558 18.564 10.0199 18.5815ZM16.7217 11.7646L11.5689 2.85024C10.2484 5.26814 9.28269 7.57161 9.13201 9.62137C9.09527 10.1212 9.10742 10.6019 9.17384 11.0631C10.4398 10.4727 11.6561 10.2328 12.8238 10.3026C14.2391 10.3871 15.5228 10.9228 16.6831 11.7374C16.6959 11.7464 16.7088 11.7555 16.7217 11.7646ZM9.73044 12.7827C9.67173 12.6727 9.61745 12.5613 9.56749 12.4484C10.7306 11.8678 11.7818 11.6612 12.7398 11.7184C12.7619 11.7198 12.7839 11.7212 12.8059 11.7228C12.7431 13.1284 12.4178 14.2186 11.9138 15.0717C10.8603 14.3689 10.1643 13.5957 9.73044 12.7827Z" fill="currentColor"></path><path d="M49.7528 4.9402C49.3782 4.9402 49.0641 4.81332 48.8103 4.55957C48.5566 4.30582 48.4297 3.99165 48.4297 3.61707C48.4297 3.24249 48.5566 2.92832 48.8103 2.67457C49.0641 2.42082 49.3782 2.29395 49.7528 2.29395C50.1153 2.29395 50.4234 2.42082 50.6772 2.67457C50.9309 2.92832 51.0578 3.24249 51.0578 3.61707C51.0578 3.99165 50.9309 4.30582 50.6772 4.55957C50.4234 4.81332 50.1153 4.9402 49.7528 4.9402ZM50.7678 6.26332V16.2502H48.7016V6.26332H50.7678Z" fill="currentColor"></path><path d="M38.8465 7.73135C39.1969 7.27218 39.6742 6.88551 40.2784 6.57135C40.8826 6.25718 41.5653 6.1001 42.3265 6.1001C43.1965 6.1001 43.988 6.3176 44.7009 6.7526C45.4259 7.17551 45.9938 7.77364 46.4046 8.54697C46.8155 9.32031 47.0209 10.2084 47.0209 11.2113C47.0209 12.2143 46.8155 13.1145 46.4046 13.912C45.9938 14.6974 45.4259 15.3136 44.7009 15.7607C43.988 16.1957 43.1965 16.4132 42.3265 16.4132C41.5653 16.4132 40.8886 16.2622 40.2965 15.9601C39.7044 15.6459 39.2211 15.2593 38.8465 14.8001V20.9988H36.7803V6.26322H38.8465V7.73135ZM44.9184 11.2113C44.9184 10.5226 44.7734 9.93051 44.4834 9.4351C44.2055 8.9276 43.8309 8.54697 43.3596 8.29322C42.9005 8.02739 42.4051 7.89447 41.8734 7.89447C41.3538 7.89447 40.8584 8.02739 40.3871 8.29322C39.928 8.55906 39.5534 8.94572 39.2634 9.45322C38.9855 9.96072 38.8465 10.5588 38.8465 11.2476C38.8465 11.9363 38.9855 12.5405 39.2634 13.0601C39.5534 13.5676 39.928 13.9543 40.3871 14.2201C40.8584 14.4859 41.3538 14.6188 41.8734 14.6188C42.4051 14.6188 42.9005 14.4859 43.3596 14.2201C43.8309 13.9422 44.2055 13.5434 44.4834 13.0238C44.7734 12.5043 44.9184 11.9001 44.9184 11.2113Z" fill="currentColor"></path><path d="M24.1699 11.2113C24.1699 10.2084 24.3753 9.32031 24.7862 8.54697C25.2091 7.77364 25.777 7.17551 26.4899 6.7526C27.2149 6.3176 28.0124 6.1001 28.8824 6.1001C29.6678 6.1001 30.3505 6.25718 30.9305 6.57135C31.5226 6.87343 31.9939 7.25406 32.3443 7.71322V6.26322H34.4287V16.2501H32.3443V14.7638C31.9939 15.2351 31.5166 15.6278 30.9124 15.942C30.3083 16.2561 29.6195 16.4132 28.8462 16.4132C27.9883 16.4132 27.2028 16.1957 26.4899 15.7607C25.777 15.3136 25.2091 14.6974 24.7862 13.912C24.3753 13.1145 24.1699 12.2143 24.1699 11.2113ZM32.3443 11.2476C32.3443 10.5588 32.1993 9.96072 31.9093 9.45322C31.6314 8.94572 31.2628 8.55906 30.8037 8.29322C30.3445 8.02739 29.8491 7.89447 29.3174 7.89447C28.7858 7.89447 28.2903 8.02739 27.8312 8.29322C27.372 8.54697 26.9974 8.9276 26.7074 9.4351C26.4295 9.93051 26.2905 10.5226 26.2905 11.2113C26.2905 11.9001 26.4295 12.5043 26.7074 13.0238C26.9974 13.5434 27.372 13.9422 27.8312 14.2201C28.3024 14.4859 28.7978 14.6188 29.3174 14.6188C29.8491 14.6188 30.3445 14.4859 30.8037 14.2201C31.2628 13.9543 31.6314 13.5676 31.9093 13.0601C32.1993 12.5405 32.3443 11.9363 32.3443 11.2476Z" fill="currentColor"></path><path d="M53.2418 6.29963C53.3143 5.17588 53.7433 4.29984 54.5287 3.6715C55.3262 3.04317 56.3412 2.729 57.5737 2.729C58.4195 2.729 59.1505 2.88005 59.7668 3.18213C60.383 3.48421 60.8483 3.89505 61.1624 4.41463C61.4766 4.93421 61.6337 5.52025 61.6337 6.17275C61.6337 6.92192 61.4343 7.56234 61.0355 8.09401C60.6368 8.62567 60.1595 8.98213 59.6037 9.16338V9.23588C60.3166 9.45338 60.8724 9.85213 61.2712 10.4321C61.6699 11 61.8693 11.7311 61.8693 12.6253C61.8693 13.3382 61.7062 13.9725 61.3799 14.5284C61.0537 15.0842 60.5703 15.5253 59.9299 15.8515C59.2895 16.1657 58.5222 16.3228 57.628 16.3228C56.323 16.3228 55.2476 15.9905 54.4018 15.3259C53.568 14.6492 53.121 13.6825 53.0605 12.4259H55.0543C55.1026 13.0663 55.3503 13.5919 55.7974 14.0028C56.2445 14.4015 56.8487 14.6009 57.6099 14.6009C58.347 14.6009 58.9149 14.4015 59.3137 14.0028C59.7124 13.5919 59.9118 13.0663 59.9118 12.4259C59.9118 11.58 59.6399 10.9819 59.0962 10.6315C58.5645 10.269 57.7428 10.0878 56.6312 10.0878H56.1599V8.38401H56.6493C57.628 8.37192 58.3712 8.2088 58.8787 7.89463C59.3983 7.58046 59.658 7.08505 59.658 6.40838C59.658 5.82838 59.4708 5.36921 59.0962 5.03088C58.7216 4.68046 58.1899 4.50526 57.5012 4.50526C56.8245 4.50526 56.2989 4.68046 55.9243 5.03088C55.5497 5.36921 55.3262 5.79213 55.2537 6.29963H53.2418Z" fill="currentColor"></path></svg>