<svg width="90" height="42" viewBox="0 0 90 42" fill="none" xmlns="http://www.w3.org/2000/svg">
<path d="M49.6212 19.0211C48.9981 18.4024 48.2207 18.0029 47.1455 18.0029C45.4944 18.0029 44.2441 19.3443 44.2441 20.9338C44.2441 22.5975 45.4944 23.9141 47.1704 23.9141C48.3211 23.9141 48.9704 23.5662 49.6711 22.9701C49.7342 22.9102 49.8103 22.8652 49.8934 22.8385C49.9766 22.8118 50.0648 22.8042 50.1514 22.8162C50.2379 22.8281 50.3207 22.8594 50.3933 22.9076C50.466 22.9558 50.5268 23.0197 50.5711 23.0946L51.7964 25.3296C51.9965 25.7023 51.9218 25.9009 51.5964 26.1244C50.5212 26.9191 48.9954 27.4162 47.32 27.4162C43.1931 27.4162 40.417 24.6593 40.417 20.9338C40.417 17.2329 43.3427 14.4761 47.32 14.4761C49.1954 14.4761 50.821 15.1464 51.6967 15.8174C51.9737 15.9913 52.0214 16.19 51.8463 16.4877L50.4208 18.9221C50.2214 19.2446 49.8968 19.2446 49.6212 19.0211ZM64.7308 20.9338C64.7308 24.6593 61.929 27.4162 58.1027 27.4162C54.3261 27.4162 51.4745 24.6593 51.4745 20.9338C51.4745 17.2329 54.2763 14.4761 58.1027 14.4761C61.929 14.4761 64.7308 17.2082 64.7308 20.9338ZM58.1027 23.9636C59.7033 23.9636 60.9543 22.6724 60.9543 20.9338C60.9543 19.2446 59.7033 17.9535 58.1027 17.9535C56.527 17.9535 55.2517 19.2446 55.2517 20.9338C55.2462 22.6724 56.5242 23.9636 58.0999 23.9636H58.1027ZM65.1808 27.2175C65.0586 27.2191 64.9406 27.1733 64.8518 27.0898C64.763 27.0064 64.7104 26.8919 64.7052 26.7706V24.3857C64.7052 24.187 64.8056 24.0138 65.0306 23.7896L69.7327 18.4271C70.108 18.0298 70.0096 17.8558 69.4828 17.8558H65.3539C65.2317 17.8574 65.1136 17.8116 65.0248 17.7281C64.9361 17.6447 64.8835 17.5302 64.8783 17.4089V15.1464C64.8824 15.0225 64.9339 14.9048 65.0222 14.8172C65.1105 14.7296 65.2291 14.6787 65.3539 14.6748H74.4577C74.5207 14.6727 74.5834 14.6834 74.6419 14.7064C74.7005 14.7293 74.7537 14.764 74.7983 14.8082C74.8428 14.8524 74.8777 14.9053 74.9008 14.9634C74.9239 15.0216 74.9348 15.0839 74.9326 15.1464V17.4564C74.9326 17.6303 74.9077 17.7314 74.808 17.829L69.8809 23.3923C69.5804 23.6906 69.6808 23.9388 70.056 23.9388H74.583C74.7051 23.9375 74.823 23.9833 74.9116 24.0667C75.0003 24.1502 75.0527 24.2645 75.058 24.3857V26.7706C75.0527 26.8918 75.0003 27.0062 74.9116 27.0896C74.823 27.173 74.7051 27.2189 74.583 27.2175H65.1808ZM78.0363 31.7873H77.5863C77.4615 31.7834 77.3429 31.7324 77.2546 31.6449C77.1663 31.5573 77.1148 31.4396 77.1106 31.3157V29.0057C77.1158 28.8844 77.1684 28.7699 77.2572 28.6865C77.346 28.6031 77.464 28.5573 77.5863 28.5588H78.7846C79.785 28.5588 80.1852 27.9133 79.785 26.8449L75.5571 15.3451C75.4325 14.9731 75.6326 14.6748 75.958 14.6748H78.5589C79.0339 14.6748 79.1592 14.7243 79.3842 15.3451L81.8855 22.5233C81.9603 22.6477 82.035 22.6477 82.0599 22.5233L84.7364 15.0983C84.8361 14.8006 85.0362 14.6761 85.4114 14.6761H88.0131C88.3378 14.6761 88.5129 14.9511 88.3876 15.2474L83.9112 26.8463C83.0112 29.2058 82.5605 29.951 81.9602 30.5718C81.1385 31.4394 79.9346 31.7873 78.0335 31.7873H78.0363Z" fill="#E077FF"/>
<ellipse cx="18.7498" cy="22.9688" rx="15" ry="11.7188" fill="white"/>
<path d="M2.52065 21.5697C2.21654 21.5754 1.91333 21.6043 1.61372 21.6564L1.5708 21.6137C1.5708 17.4977 4.24726 12.8674 7.48588 10.7237C7.18707 10.4399 6.85325 10.1948 6.49242 9.99431V9.95169C9.21249 7.50763 15.041 6.30794 18.9699 6.95075C20.4331 6.23711 22.0478 5.88341 23.6776 5.9195L23.7205 5.96213C23.5241 6.35688 23.3789 6.77477 23.2885 7.20581C24.9722 7.1625 28.9876 8.19169 30.2808 9.049V9.13494C29.9216 9.35431 29.5886 9.61331 29.288 9.907C32.9143 12.0073 35.1166 14.6232 36.1959 18.3103L36.1523 18.3529C35.8437 18.3943 35.5402 18.4661 35.246 18.5674C35.3461 19.3353 35.4037 20.1081 35.4184 20.8822C35.4184 28.8146 27.9927 35.3314 18.9692 35.3314C10.2053 35.3328 2.95265 29.2017 2.52065 21.5697ZM30.411 27.8294C30.411 26.9295 29.6342 26.3293 28.4683 26.3293C27.9498 26.3293 27.1301 26.4145 26.7846 26.4145C25.1439 26.4145 23.8486 25.2142 23.8486 23.6707C23.8486 22.1273 25.1439 20.9269 26.7846 20.9269C29.4611 20.9269 31.8786 23.0705 32.1383 25.3427C32.3584 24.6048 32.4749 23.8402 32.4844 23.0705C32.4844 18.7393 30.1956 15.7831 25.533 14.5387L25.49 14.4961C25.6195 14.1956 25.7919 13.9811 26.0079 13.724L25.965 13.6814C24.8856 13.6381 23.6333 13.8099 22.727 14.153L22.6834 14.1097C22.7338 13.6884 22.8657 13.2808 23.0718 12.9093L23.0289 12.8667C21.5612 13.0379 20.052 13.5095 18.9706 14.1097C17.8913 13.5095 16.38 13.0379 14.9123 12.8667L14.8693 12.9093C15.0755 13.2808 15.2074 13.6884 15.2577 14.1097L15.2141 14.153C14.3079 13.8092 13.0555 13.6381 11.9762 13.6814L11.9333 13.724C12.1493 13.9811 12.3216 14.1956 12.4511 14.4961L12.4082 14.5387C7.91788 15.7817 5.45742 18.74 5.45742 23.0705C5.46697 23.8402 5.58345 24.6048 5.80357 25.3427C6.06318 23.0705 8.48072 20.9269 11.1572 20.9269C12.798 20.9269 14.0933 22.1273 14.0933 23.6707C14.0933 25.2142 12.798 26.4145 11.1572 26.4145C10.811 26.4145 9.99203 26.3293 9.47349 26.3293C8.30834 26.3293 7.53088 26.9295 7.53088 27.8294C7.53088 31.0022 13.446 34.0465 18.972 34.0465C24.498 34.0465 30.411 31.0022 30.411 27.8294ZM12.1915 23.1991C12.1944 23.08 12.173 22.9616 12.1285 22.851C12.0839 22.7404 12.0172 22.64 11.9324 22.5558C11.8476 22.4715 11.7464 22.4053 11.6351 22.3611C11.5237 22.3169 11.4045 22.2956 11.2846 22.2985C10.8096 22.2985 10.4213 22.6849 10.4213 23.1991C10.4218 23.4262 10.5128 23.6438 10.6745 23.8045C10.8361 23.9651 11.0552 24.0557 11.2839 24.0564C11.8031 24.0564 12.1915 23.6707 12.1915 23.1991ZM16.6839 26.3719C16.6839 25.9862 16.9857 25.6844 17.4177 25.6844C17.8926 25.6844 18.2381 26.0282 18.972 26.0282C19.7058 26.0282 20.0513 25.6844 20.5262 25.6844C20.9582 25.6844 21.26 25.9849 21.26 26.3719C21.26 27.0594 20.2673 27.6149 18.972 27.6149C17.6766 27.6149 16.6839 27.058 16.6839 26.3719ZM17.1152 22.942C17.1152 22.1273 17.8075 21.6557 18.972 21.6557C20.1364 21.6557 20.8287 22.1273 20.8287 22.942C20.8287 23.714 19.9647 24.3995 18.972 24.3995C17.9792 24.3995 17.1131 23.7567 17.1131 22.942H17.1152ZM27.5206 23.1991C27.5206 22.6849 27.1322 22.2985 26.6573 22.2985C26.5374 22.2956 26.4181 22.3169 26.3067 22.3611C26.1954 22.4053 26.0942 22.4715 26.0094 22.5558C25.9246 22.64 25.8579 22.7404 25.8134 22.851C25.7688 22.9616 25.7474 23.08 25.7503 23.1991C25.7503 23.6707 26.1387 24.0564 26.6573 24.0564C26.8857 24.0553 27.1044 23.9646 27.2658 23.804C27.4271 23.6434 27.5179 23.426 27.5185 23.1991H27.5206Z" fill="#E077FF"/>
</svg>
