<svg width="44" height="44" viewBox="0 0 44 44" fill="none">
<path fill-rule="evenodd" clip-rule="evenodd" d="M44 0H0V44H44V0ZM24.5576 18.1544C22.6838 18.2902 20.7039 18.3496 18.8315 18.3804L18.7618 15.5452C20.7632 15.5389 22.6661 15.4805 24.5436 15.3701L25.0922 15.3378L25.0702 14.7887C25.016 13.434 25.0127 11.9495 25.0124 10.4211H28.2015C28.1998 11.0494 28.1936 11.6728 28.1874 12.2904L28.1871 12.3247L28.1871 12.3255C28.1799 13.0372 28.1728 13.7417 28.1728 14.4326V15.065L28.8006 14.9884C29.8996 14.8544 31.0218 14.696 32.0775 14.5358L32.4952 17.3437C31.385 17.5263 30.0942 17.7045 28.7093 17.8351L28.1962 17.8835L28.202 18.3988C28.2312 21.0318 28.3482 23.5174 28.4944 25.7093L28.5174 26.0551L28.8372 26.1887C30.9354 27.0651 32.4555 28.1906 33.7887 29.4602L31.9067 31.9696C30.972 30.9116 30.0359 30.019 29.1829 29.3861L28.4669 28.855L28.2993 29.7305C28.0616 30.9719 27.5027 31.7989 26.693 32.3305C25.8648 32.8742 24.7132 33.1485 23.2295 33.1485C21.7841 33.1485 20.4509 32.834 19.4967 32.1861C18.5695 31.5565 17.9659 30.5926 17.9659 29.1661C17.9659 27.7608 18.5937 26.7669 19.5187 26.1057C20.4629 25.4308 21.7323 25.0964 22.9675 25.0964H22.9771L22.9868 25.096C23.6755 25.0723 23.9539 25.1083 24.4754 25.1757L24.4766 25.1758C24.5555 25.1861 24.6401 25.197 24.7324 25.2085L25.3929 25.2911L25.3612 24.6263C25.2742 22.7981 25.216 20.8523 25.1578 18.6978L25.142 18.112L24.5576 18.1544ZM25.3022 28.0789L25.2762 27.7052L24.9207 27.5867C24.3494 27.3962 23.8472 27.2653 22.8709 27.2959C22.2274 27.2971 21.6686 27.4252 21.2513 27.6949C20.8144 27.9773 20.544 28.4135 20.544 28.9332C20.544 29.3698 20.7486 29.7935 21.1906 30.0825C21.6035 30.3525 22.1872 30.4832 22.9384 30.4832C23.751 30.4832 24.4431 30.349 24.8793 29.8649C25.313 29.3838 25.3467 28.716 25.3022 28.0789ZM10.8777 16.065C11.3064 14.0823 11.6445 12.1897 11.7206 10.4743L14.9425 10.9244C14.8632 12.5099 14.5485 14.265 13.8349 17.1198C13.1544 19.783 12.7404 23.1191 12.7404 25.4682C12.7404 26.07 12.7703 26.6991 12.9291 27.3976L12.9304 27.4035L12.9319 27.4093C12.9711 27.5662 13.0242 27.7418 13.1104 27.8908C13.2001 28.046 13.3765 28.2552 13.682 28.2976C13.9516 28.3351 14.1742 28.2173 14.3062 28.1308C14.4511 28.0358 14.5979 27.9035 14.7446 27.7568C15.2329 27.2685 15.6228 26.7816 15.987 26.2584L15.9915 26.2608C14.9798 29.1905 14.7486 30.4113 14.6055 32.3571L14.6049 32.3649L14.6045 32.3728C14.5805 32.9007 14.412 33.2339 14.1981 33.4386C13.9826 33.6448 13.6632 33.7761 13.2348 33.7891C12.5473 33.7858 11.8544 33.3218 11.3889 32.7305C10.5545 31.5778 9.8421 29.4124 9.8421 26.167C9.8421 23.3724 10.16 19.3089 10.8771 16.0677L10.8777 16.065Z" fill="black"/>
</svg>